<svg xmlns="http://www.w3.org/2000/svg" viewBox="0 0 280 280">
  <defs>
    <style>
      .cls-1{fill:#2f1d60;}
      .cls-2{fill:#ea9a0c;}
      .cls-3{fill:#fccc00;}
    </style>
  </defs>
  <g transform="translate(15, 12)">
    <path class="cls-1" d="M243.62,237.73a18.18,18.18,0,0,1-18.15,18.21H23.53A23.53,23.53,0,0,1,0,232.41V121.94H229.18a14.38,14.38,0,0,1,14.38,14.38V237.58s.06.1.06.15"/>
    <path class="cls-2" d="M242.57,56.74V93.21h18.18a20.63,20.63,0,0,0,20.62-20.63V56.74Z"/>
    <path class="cls-3" d="M243.59,124.94v76.51a18.14,18.14,0,0,1-18.14,18.13h-184a5.11,5.11,0,0,1-5.1-5.09V189.06h5a25.77,25.77,0,0,0,25.66-28.27c-1.31-13.4-13.31-23.26-26.76-23.26H36.38V106.8H225.45A18.14,18.14,0,0,1,243.59,124.94Z"/>
    <path class="cls-3" d="M196.73,0a46.61,46.61,0,0,0-46.61,46.61V75.09a18.13,18.13,0,0,0,18.13,18.13h75.09V46.61A46.61,46.61,0,0,0,196.73,0"/>
    <path class="cls-1" d="M225.24,47.88A12.64,12.64,0,1,1,212.6,35.24a12.64,12.64,0,0,1,12.64,12.64"/>
  </g>
</svg>
